<?xml version="1.0" encoding="UTF-8" standalone="no"?>
<!-- Created with Inkscape (http://www.inkscape.org/) -->

<svg
   width="150mm"
   height="25mm"
   viewBox="0 0 150 25"
   version="1.1"
   id="svg1"
   inkscape:version="1.4.2 (ebf0e940, 2025-05-08)"
   sodipodi:docname="그리기.svg"
   xmlns:inkscape="http://www.inkscape.org/namespaces/inkscape"
   xmlns:sodipodi="http://sodipodi.sourceforge.net/DTD/sodipodi-0.dtd"
   xmlns="http://www.w3.org/2000/svg"
   xmlns:svg="http://www.w3.org/2000/svg">
  <sodipodi:namedview
     id="namedview1"
     pagecolor="#505050"
     bordercolor="#eeeeee"
     borderopacity="1"
     inkscape:showpageshadow="0"
     inkscape:pageopacity="0"
     inkscape:pagecheckerboard="0"
     inkscape:deskcolor="#505050"
     inkscape:document-units="mm"
     inkscape:zoom="1.530274"
     inkscape:cx="419.20597"
     inkscape:cy="260.08414"
     inkscape:window-width="2432"
     inkscape:window-height="1175"
     inkscape:window-x="0"
     inkscape:window-y="25"
     inkscape:window-maximized="0"
     inkscape:current-layer="layer1" />
  <defs
     id="defs1">
    <clipPath
       clipPathUnits="userSpaceOnUse"
       id="clipPath2">
      <path
         d="M 0,841.89 H 595.281 V 0 H 0 Z"
         transform="translate(-187.32081,-598.61242)"
         id="path2" />
    </clipPath>
    <clipPath
       clipPathUnits="userSpaceOnUse"
       id="clipPath4">
      <path
         d="M 0,841.89 H 595.281 V 0 H 0 Z"
         transform="translate(-218.56051,-582.88241)"
         id="path4" />
    </clipPath>
    <clipPath
       clipPathUnits="userSpaceOnUse"
       id="clipPath6">
      <path
         d="M 0,841.89 H 595.281 V 0 H 0 Z"
         transform="translate(-233.41651,-582.73841)"
         id="path6" />
    </clipPath>
    <clipPath
       clipPathUnits="userSpaceOnUse"
       id="clipPath12">
      <path
         d="M 0,841.89 H 595.281 V 0 H 0 Z"
         transform="translate(-261.2686,-599.07871)"
         id="path12" />
    </clipPath>
    <clipPath
       clipPathUnits="userSpaceOnUse"
       id="clipPath14">
      <path
         d="M 0,841.89 H 595.281 V 0 H 0 Z"
         transform="translate(-269.88921,-612.81262)"
         id="path14" />
    </clipPath>
    <clipPath
       clipPathUnits="userSpaceOnUse"
       id="clipPath16">
      <path
         d="M 0,841.89 H 595.281 V 0 H 0 Z"
         transform="translate(-295.6777,-612.81262)"
         id="path16" />
    </clipPath>
    <clipPath
       clipPathUnits="userSpaceOnUse"
       id="clipPath18">
      <path
         d="M 0,841.89 H 595.281 V 0 H 0 Z"
         transform="translate(-332.29201,-589.37512)"
         id="path18" />
    </clipPath>
    <clipPath
       clipPathUnits="userSpaceOnUse"
       id="clipPath20">
      <path
         d="M 0,841.89 H 595.281 V 0 H 0 Z"
         transform="translate(-358.41601,-599.97421)"
         id="path20" />
    </clipPath>
    <clipPath
       clipPathUnits="userSpaceOnUse"
       id="clipPath22">
      <path
         d="M 0,841.89 H 595.281 V 0 H 0 Z"
         transform="translate(-405.29201,-599.97421)"
         id="path22" />
    </clipPath>
    <clipPath
       clipPathUnits="userSpaceOnUse"
       id="clipPath24">
      <path
         d="M 0,841.89 H 595.281 V 0 H 0 Z"
         transform="translate(-440.97071,-590.53192)"
         id="path24" />
    </clipPath>
    <clipPath
       clipPathUnits="userSpaceOnUse"
       id="clipPath26">
      <path
         d="M 0,841.89 H 595.281 V 0 H 0 Z"
         transform="translate(-377.66701,-589.78582)"
         id="path26" />
    </clipPath>
  </defs>
  <g
     inkscape:label="Layer 1"
     inkscape:groupmode="layer"
     id="layer1">
    <path
       id="path1"
       d="m 0,0 c 0,-10.696 -8.671,-19.368 -19.368,-19.368 -10.696,0 -19.368,8.672 -19.368,19.368 0,10.697 8.672,19.368 19.368,19.368 C -8.671,19.368 0,10.697 0,0"
       style="fill:#00a8e2;fill-opacity:1;fill-rule:nonzero;stroke:none"
       transform="matrix(0.35277776,0,0,-0.35277776,36.952278,12.82016)"
       clip-path="url(#clipPath2)" />
    <path
       id="path3"
       d="m 0,0 -34.47,34.47 c -1.331,1.331 -3.594,0.404 -3.631,-1.465 5.349,-3.879 8.842,-10.162 8.842,-17.275 0,-7.112 -3.492,-13.395 -8.841,-17.274 0.021,-1.159 0.96,-2.094 2.123,-2.094 h 34.47 C 0.392,-3.638 1.342,-1.342 0,0"
       style="fill:#00609c;fill-opacity:1;fill-rule:nonzero;stroke:none"
       transform="matrix(0.35277776,0,0,-0.35277776,47.972978,18.36936)"
       clip-path="url(#clipPath4)" />
    <path
       id="path5"
       d="m 0,0 -9.009,9.268 -6.574,6.762 6.391,6.451 9.181,9.268 c 1.357,1.368 0.24,3.493 -1.835,3.493 h -19.989 -19.988 c -2.076,0 -3.192,-2.125 -1.836,-3.493 l 9.181,-9.268 6.815,-6.878 19.097,-19.097 h 6.765 C 0.236,-3.494 1.331,-1.369 0,0"
       style="fill:#003764;fill-opacity:1;fill-rule:nonzero;stroke:none"
       transform="matrix(0.35277776,0,0,-0.35277776,53.21388,18.42016)"
       clip-path="url(#clipPath6)" />
    <path
       id="path11"
       d="M 0,0 C 0,1.293 -0.155,2.525 -0.467,3.694 -0.778,4.864 -1.251,5.896 -1.885,6.792 -2.52,7.687 -3.31,8.397 -4.255,8.919 -5.2,9.442 -6.308,9.704 -7.576,9.704 -8.87,9.704 -10.002,9.442 -10.972,8.919 -11.943,8.397 -12.745,7.687 -13.379,6.792 -14.015,5.896 -14.487,4.864 -14.798,3.694 -15.109,2.525 -15.265,1.293 -15.265,0 c 0,-1.319 0.156,-2.563 0.467,-3.732 0.311,-1.17 0.783,-2.197 1.419,-3.08 0.634,-0.883 1.436,-1.585 2.407,-2.108 0.97,-0.522 2.102,-0.784 3.396,-0.784 1.268,0 2.376,0.262 3.321,0.784 0.945,0.523 1.735,1.225 2.37,2.108 0.634,0.883 1.107,1.91 1.418,3.08 C -0.155,-2.563 0,-1.319 0,0 m -20.415,0 c 0,2.114 0.317,4.049 0.952,5.803 0.634,1.755 1.524,3.26 2.668,4.516 1.144,1.257 2.501,2.227 4.068,2.911 1.568,0.684 3.271,1.027 5.114,1.027 1.84,0 3.538,-0.343 5.093,-1.027 1.556,-0.684 2.905,-1.654 4.05,-2.911 C 2.674,9.063 3.563,7.558 4.199,5.803 4.833,4.049 5.15,2.114 5.15,0 5.15,-2.141 4.833,-4.087 4.199,-5.841 3.563,-7.595 2.674,-9.094 1.53,-10.338 c -1.145,-1.245 -2.494,-2.209 -4.05,-2.892 -1.555,-0.685 -3.253,-1.027 -5.093,-1.027 -1.843,0 -3.546,0.342 -5.114,1.027 -1.567,0.683 -2.924,1.647 -4.068,2.892 -1.144,1.244 -2.034,2.743 -2.668,4.497 -0.635,1.754 -0.952,3.7 -0.952,5.841"
       style="fill:#003764;fill-opacity:1;fill-rule:nonzero;stroke:none"
       transform="matrix(0.35277776,0,0,-0.35277776,63.03948,12.65566)"
       clip-path="url(#clipPath12)" />
    <path
       id="path13"
       d="M 0,0 H 6.083 L 16.496,-18.884 V 0 h 5.076 V -27.506 H 16.123 L 5.076,-8.472 v -18.287 c 0,-0.448 -0.224,-0.741 -0.672,-0.877 -0.448,-0.137 -1.07,-0.206 -1.865,-0.206 -0.798,0 -1.42,0.069 -1.867,0.206 C 0.224,-27.5 0,-27.219 0,-26.797 Z"
       style="fill:#003764;fill-opacity:1;fill-rule:nonzero;stroke:none"
       transform="matrix(0.35277776,0,0,-0.35277776,66.08058,7.8106594)"
       clip-path="url(#clipPath14)" />
    <path
       id="path15"
       d="M 0,0 H 6.083 L 16.496,-18.884 V 0 h 5.076 V -27.506 H 16.123 L 5.076,-8.472 v -18.287 c 0,-0.448 -0.224,-0.741 -0.672,-0.877 -0.447,-0.137 -1.069,-0.206 -1.865,-0.206 -0.797,0 -1.419,0.069 -1.867,0.206 C 0.225,-27.5 0,-27.219 0,-26.797 Z"
       style="fill:#003764;fill-opacity:1;fill-rule:nonzero;stroke:none"
       transform="matrix(0.35277776,0,0,-0.35277776,75.17818,7.8106594)"
       clip-path="url(#clipPath16)" />
    <path
       id="path17"
       d="m 0,0 c 1.716,0 3.079,0.56 4.086,1.679 1.008,1.12 1.511,2.737 1.511,4.852 v 16.906 h 5.151 V 6.531 C 10.748,4.665 10.487,3.035 9.964,1.642 9.441,0.248 8.707,-0.902 7.762,-1.81 6.816,-2.719 5.685,-3.397 4.366,-3.844 3.047,-4.292 1.592,-4.516 0,-4.516 c -1.594,0 -3.049,0.224 -4.367,0.672 -1.32,0.447 -2.457,1.125 -3.415,2.034 -0.958,0.908 -1.704,2.058 -2.239,3.452 -0.536,1.393 -0.803,3.023 -0.803,4.889 v 16.906 h 5.151 V 6.531 c 0,-2.115 0.522,-3.732 1.568,-4.852 C -3.061,0.56 -1.692,0 0,0"
       style="fill:#003764;fill-opacity:1;fill-rule:nonzero;stroke:none"
       transform="matrix(0.35277776,0,0,-0.35277776,88.09488,16.07886)"
       clip-path="url(#clipPath18)" />
    <path
       id="path19"
       d="M 0,0 C 1.442,0 2.494,0.341 3.154,1.026 3.813,1.71 4.143,2.749 4.143,4.143 4.143,5.536 3.807,6.574 3.135,7.259 2.463,7.943 1.381,8.285 -0.112,8.285 H -6.008 V 0 Z m -6.008,-13.921 c 0,-0.448 -0.23,-0.74 -0.691,-0.877 -0.461,-0.137 -1.089,-0.205 -1.885,-0.205 -0.797,0 -1.425,0.068 -1.884,0.205 -0.461,0.137 -0.691,0.417 -0.691,0.84 v 26.796 h 11.01 c 1.692,0 3.135,-0.217 4.33,-0.652 1.193,-0.436 2.17,-1.04 2.928,-1.811 C 7.868,9.604 8.422,8.683 8.771,7.613 9.119,6.543 9.294,5.386 9.294,4.143 9.294,2.301 8.889,0.666 8.08,-0.765 7.271,-2.196 5.984,-3.235 4.218,-3.882 L 11.01,-14.667 H 5.151 l -6.159,10.114 h -5 z"
       style="fill:#003764;fill-opacity:1;fill-rule:nonzero;stroke:none"
       transform="matrix(0.35277776,0,0,-0.35277776,97.31088,12.33976)"
       clip-path="url(#clipPath20)" />
    <path
       id="path21"
       d="M 0,0 C 1.442,0 2.494,0.341 3.154,1.026 3.813,1.71 4.143,2.749 4.143,4.143 4.143,5.536 3.807,6.574 3.135,7.259 2.463,7.943 1.381,8.285 -0.112,8.285 H -6.008 V 0 Z m -6.008,-13.921 c 0,-0.448 -0.23,-0.74 -0.691,-0.877 -0.461,-0.137 -1.089,-0.205 -1.885,-0.205 -0.797,0 -1.425,0.068 -1.885,0.205 -0.46,0.137 -0.69,0.417 -0.69,0.84 v 26.796 h 11.01 c 1.692,0 3.135,-0.217 4.33,-0.652 1.193,-0.436 2.17,-1.04 2.928,-1.811 C 7.868,9.604 8.422,8.683 8.771,7.613 9.119,6.543 9.293,5.386 9.293,4.143 9.293,2.923 9.119,1.785 8.771,0.728 8.422,-0.33 7.874,-1.25 7.129,-2.034 6.383,-2.818 5.417,-3.434 4.236,-3.882 3.054,-4.329 1.642,-4.553 0,-4.553 h -6.008 z"
       style="fill:#003764;fill-opacity:1;fill-rule:nonzero;stroke:none"
       transform="matrix(0.35277776,0,0,-0.35277776,113.84768,12.33976)"
       clip-path="url(#clipPath22)" />
    <path
       id="path23"
       d="m 0,0 c 0,-0.398 -0.156,-0.902 -0.467,-1.511 -0.311,-0.61 -0.777,-1.214 -1.399,-1.811 -0.647,-0.596 -1.282,-1.063 -1.904,-1.399 -0.622,-0.336 -1.169,-0.504 -1.642,-0.504 h -3.881 c -2.165,0 -4.124,0.317 -5.878,0.952 -1.755,0.634 -3.248,1.554 -4.479,2.762 -1.232,1.206 -2.183,2.68 -2.855,4.422 -0.672,1.741 -1.008,3.707 -1.008,5.897 0,2.289 0.392,4.304 1.176,6.046 0.783,1.741 1.848,3.203 3.191,4.385 1.343,1.182 2.898,2.072 4.665,2.669 1.766,0.597 3.632,0.896 5.598,0.896 1.542,0 2.898,-0.125 4.069,-0.374 1.168,-0.249 2.202,-0.585 3.097,-1.007 0.497,-0.224 0.759,-0.499 0.784,-0.821 0.024,-0.324 -0.126,-0.872 -0.448,-1.643 -0.349,-0.796 -0.647,-1.288 -0.895,-1.474 -0.25,-0.186 -0.598,-0.205 -1.046,-0.056 -0.847,0.224 -1.717,0.417 -2.613,0.578 -0.895,0.162 -1.866,0.243 -2.911,0.243 -1.518,0 -2.868,-0.249 -4.05,-0.746 -1.181,-0.499 -2.176,-1.17 -2.984,-2.015 -0.809,-0.846 -1.426,-1.848 -1.848,-3.005 -0.423,-1.157 -0.634,-2.383 -0.634,-3.676 0,-1.394 0.205,-2.668 0.615,-3.826 0.411,-1.157 1.002,-2.159 1.773,-3.004 0.771,-0.846 1.717,-1.499 2.836,-1.959 1.119,-0.461 2.389,-0.691 3.808,-0.691 h 3.471 c 0.472,0 0.709,0.224 0.709,0.672 v 6.27 h -6.345 v 4.553 H 0 Z"
       style="fill:#003764;fill-opacity:1;fill-rule:nonzero;stroke:none"
       transform="matrix(0.35277776,0,0,-0.35277776,126.43438,15.67076)"
       clip-path="url(#clipPath24)" />
    <path
       id="path25"
       d="m 0,0 v 18.548 4.479 H -5.076 V 18.548 0 -4.479 H 0 Z"
       style="fill:#003764;fill-opacity:1;fill-rule:nonzero;stroke:none"
       transform="matrix(0.35277776,0,0,-0.35277776,104.10218,15.93396)"
       clip-path="url(#clipPath26)" />
  </g>
</svg>
