<?xml version="1.0" encoding="UTF-8" standalone="no"?>
<!-- Created with Inkscape (http://www.inkscape.org/) -->

<svg
   width="707mm"
   height="500mm"
   viewBox="0 0 707 500"
   version="1.1"
   id="svg1"
   inkscape:version="1.4.2 (f4327f4, 2025-05-13)"
   sodipodi:docname="TDC_WH.svg"
   xmlns:inkscape="http://www.inkscape.org/namespaces/inkscape"
   xmlns:sodipodi="http://sodipodi.sourceforge.net/DTD/sodipodi-0.dtd"
   xmlns="http://www.w3.org/2000/svg"
   xmlns:svg="http://www.w3.org/2000/svg">
  <sodipodi:namedview
     id="namedview1"
     pagecolor="#505050"
     bordercolor="#eeeeee"
     borderopacity="1"
     inkscape:showpageshadow="0"
     inkscape:pageopacity="0"
     inkscape:pagecheckerboard="0"
     inkscape:deskcolor="#505050"
     inkscape:document-units="mm"
     inkscape:zoom="0.56725033"
     inkscape:cx="1061.2599"
     inkscape:cy="848.8316"
     inkscape:window-width="3840"
     inkscape:window-height="2054"
     inkscape:window-x="-11"
     inkscape:window-y="-11"
     inkscape:window-maximized="1"
     inkscape:current-layer="layer1" />
  <defs
     id="defs1" />
  <g
     inkscape:label="Layer 1"
     inkscape:groupmode="layer"
     id="layer1">
    <path
       style="font-size:70.5556px;font-family:Pretendard;-inkscape-font-specification:Pretendard;stroke-width:0.264583;fill:#ffffff"
       d="m 387.22725,196.38238 h 5.71887 v 5.85667 h 0.48231 q 1.20578,-3.03169 3.78961,-4.68534 2.61827,-1.65364 6.27008,-1.65364 3.5829,0 6.09782,1.65364 2.51492,1.6192 3.89296,4.68534 h 0.41341 q 1.48139,-2.96279 4.37528,-4.65088 2.89388,-1.6881 6.85574,-1.6881 3.41065,0 5.96002,1.41249 2.58382,1.41249 4.03076,4.30637 1.44694,2.85943 1.44694,7.1658 v 25.01141 h -5.92556 v -24.94251 q 0,-3.89296 -2.13596,-5.75331 -2.13597,-1.8948 -5.44326,-1.8948 -2.54937,0 -4.40972,1.06798 -1.86036,1.06798 -2.82498,2.92833 -0.96463,1.86035 -0.96463,4.27192 v 24.32239 h -5.99447 v -25.56262 q 0,-2.06706 -0.93018,-3.65181 -0.93017,-1.61919 -2.61827,-2.48047 -1.65365,-0.89572 -3.75516,-0.89572 -2.23931,0 -4.16857,1.20578 -1.92925,1.17134 -3.10059,3.27284 -1.13688,2.10151 -1.13688,4.75424 v 23.35776 h -5.92557 z"
       id="path22" />
    <path
       id="path21"
       style="font-size:70.5556px;font-family:Pretendard;-inkscape-font-specification:Pretendard;stroke-width:0.264583;fill:#ffffff"
       d="m 325.62908,195.89984 c -3.35322,0 -6.316,0.82682 -8.88834,2.48046 -2.54938,1.63068 -4.53639,3.92776 -5.96036,6.89054 -1.40101,2.93982 -2.10117,6.31601 -2.10117,10.12858 0,3.81258 0.70016,7.16545 2.10117,10.05933 1.42397,2.89389 3.45658,5.1332 6.09782,6.71794 2.64124,1.58475 5.74182,2.37712 9.30175,2.37712 2.5264,0 4.81182,-0.39011 6.85592,-1.17099 2.06706,-0.80386 3.7896,-1.91794 5.16764,-3.34192 1.40101,-1.44694 2.40008,-3.11224 2.99723,-4.99556 h -6.33915 c -0.75792,1.26321 -1.87149,2.29673 -3.34139,3.10059 -1.44694,0.78088 -3.22725,1.1715 -5.34025,1.1715 -2.22783,0 -4.20267,-0.47066 -5.92522,-1.41231 -1.69958,-0.96463 -3.04316,-2.36598 -4.03076,-4.20336 -0.98759,-1.83739 -1.52767,-4.05339 -1.61954,-6.64869 h 27.1477 v -2.48047 c 0,-4.36379 -0.76957,-7.93555 -2.30839,-10.71459 -1.51584,-2.80202 -3.4912,-4.82297 -5.92573,-6.0632 -2.43454,-1.2632 -5.06395,-1.89497 -7.88893,-1.89497 z m 38.03386,0 c -2.71015,0 -5.15616,0.43672 -7.33806,1.30948 -2.15892,0.84979 -3.89312,2.04391 -5.20226,3.58272 -1.30914,1.53881 -2.08986,3.30747 -2.3425,5.30562 h 6.20118 c 0.43638,-1.49287 1.37769,-2.69865 2.82463,-3.61735 1.44694,-0.94166 3.30729,-1.41283 5.58105,-1.41283 2.77905,0 4.88056,0.65457 6.30453,1.9637 1.44694,1.28617 2.17041,3.13538 2.17041,5.54695 v 3.03134 c -1.30914,0.0459 -2.93947,0.12649 -4.89169,0.24133 -1.92926,0.0919 -3.67511,0.19522 -5.23689,0.31006 -4.06521,0.29857 -7.42975,1.2404 -10.09396,2.82515 -2.64125,1.58474 -3.96203,4.3175 -3.96203,8.19898 0,2.36564 0.56287,4.42155 1.68827,6.16707 1.1254,1.72255 2.65289,3.04333 4.58215,3.96203 1.92925,0.91869 4.088,1.37769 6.4766,1.37769 2.02113,0 3.78978,-0.2984 5.30562,-0.89555 1.53881,-0.62012 2.77905,-1.37804 3.72071,-2.27376 0.96462,-0.9187 1.67644,-1.86053 2.13578,-2.82515 h 0.27544 v 5.09891 h 5.85701 V 209.129 c 0,-5.16764 -1.44694,-8.65833 -4.34082,-10.47274 -2.89388,-1.83739 -6.13227,-2.75642 -9.71517,-2.75642 z m -38.03386,5.23688 c 1.99816,0 3.7663,0.47066 5.3051,1.41232 1.53882,0.94166 2.72181,2.23914 3.54863,3.89279 0.84979,1.63068 1.27485,3.49103 1.27485,5.58105 h -21.1186 c 0.1378,-1.95222 0.66622,-3.75481 1.58491,-5.40845 0.94166,-1.67662 2.21634,-3.00906 3.82406,-3.99666 1.63068,-0.98759 3.49103,-1.48105 5.58105,-1.48105 z m 46.23284,15.33034 v 3.75532 c 0,1.60771 -0.41341,3.1119 -1.24024,4.5129 -0.82682,1.40101 -2.0326,2.52675 -3.61735,3.37654 -1.56178,0.8498 -3.41047,1.27434 -5.54643,1.27434 -2.36563,0 -4.27209,-0.5051 -5.71903,-1.51567 -1.42397,-1.03353 -2.13578,-2.50326 -2.13578,-4.40955 0,-1.97519 0.76957,-3.47989 2.30838,-4.51342 1.53881,-1.03353 3.70922,-1.64199 6.51123,-1.82572 z m -83.04196,37.56928 c -4.19153,0 -7.89501,1.03353 -11.11043,3.10058 -3.18671,2.03835 -5.67023,4.90944 -7.45019,8.61291 -1.75126,3.67477 -2.62672,7.89502 -2.62672,12.66073 0,4.76571 0.87546,8.95707 2.62672,12.57443 1.77996,3.61734 4.32072,6.41649 7.62227,8.39742 3.30155,1.98092 7.17728,2.97139 11.6272,2.97139 3.158,0 6.01439,-0.48789 8.5695,-1.46399 2.58382,-1.00482 4.73701,-2.39756 6.45955,-4.17753 1.75126,-1.80867 3.0001,-3.88991 3.74654,-6.24406 h -7.92354 c -0.9474,1.579 -2.33963,2.87091 -4.17701,3.87573 -1.80867,0.97612 -4.0338,1.464 -6.67504,1.464 -2.78479,0 -5.25361,-0.5882 -7.40679,-1.76527 -2.12447,-1.20579 -3.80396,-2.95722 -5.03845,-5.25394 -1.23449,-2.29674 -1.90933,-5.067 -2.02416,-8.31112 h 33.93436 v -3.10059 c 0,-5.45473 -0.9621,-9.91917 -2.88561,-13.39298 -1.8948,-3.50251 -4.36362,-6.02909 -7.40679,-7.57938 -3.04316,-1.579 -6.33019,-2.36833 -9.86141,-2.36833 z m 184.44145,0 c -4.19153,0 -7.89501,1.03353 -11.11043,3.10058 -3.18671,2.03835 -5.66971,4.90944 -7.44967,8.61291 -1.75126,3.67477 -2.62723,7.89502 -2.62723,12.66073 0,4.76571 0.87597,8.95707 2.62723,12.57443 1.77996,3.61734 4.32072,6.41649 7.62227,8.39742 3.30155,1.98092 7.17729,2.97139 11.6272,2.97139 3.158,0 6.01439,-0.48789 8.5695,-1.46399 2.58382,-1.00482 4.73701,-2.39756 6.45955,-4.17753 1.75126,-1.80867 3.00011,-3.88991 3.74655,-6.24406 h -7.92355 c -0.9474,1.579 -2.34014,2.87091 -4.17752,3.87573 -1.80868,0.97612 -4.03329,1.464 -6.67453,1.464 -2.78478,0 -5.25412,-0.5882 -7.4073,-1.76527 -2.12448,-1.20579 -3.80396,-2.95722 -5.03845,-5.25394 -1.23449,-2.29674 -1.90881,-5.067 -2.02365,-8.31112 h 33.93384 v -3.10059 c 0,-5.45473 -0.96159,-9.91917 -2.88509,-13.39298 -1.8948,-3.50251 -4.36362,-6.02909 -7.40679,-7.57938 -3.04316,-1.579 -6.33071,-2.36833 -9.86193,-2.36833 z m -184.44145,6.54585 c 2.49769,0 4.70813,0.58819 6.63164,1.76527 1.92351,1.17708 3.40186,2.79931 4.43538,4.86637 1.06224,2.03834 1.59371,4.36379 1.59371,6.97632 H 275.0823 c 0.17225,-2.44028 0.8329,-4.69378 1.98127,-6.76083 1.17707,-2.09577 2.77043,-3.76107 4.78007,-4.99556 2.03835,-1.2345 4.36379,-1.85157 6.97632,-1.85157 z m 184.44145,0 c 2.4977,0 4.70865,0.58819 6.63216,1.76527 1.92351,1.17708 3.40186,2.79931 4.43539,4.86637 1.06224,2.03834 1.59318,4.36379 1.59318,6.97632 h -26.39787 c 0.17225,-2.44028 0.8324,-4.69378 1.98076,-6.76083 1.17707,-2.09577 2.77043,-3.76107 4.78007,-4.99556 2.03834,-1.2345 4.36378,-1.85157 6.97631,-1.85157 z" />
    <path
       style="font-size:70.5556px;font-family:Pretendard;-inkscape-font-specification:Pretendard;stroke-width:0.264583;fill:#ffffff"
       d="m 270.78295,183.91113 h 37.62046 v 5.51215 h -15.64074 v 44.37286 h -6.27008 v -44.37286 h -15.70964 z"
       id="text8" />
    <path
       style="font-size:88.1944px;font-family:Pretendard;-inkscape-font-specification:Pretendard;stroke-width:0.264583;fill:#ffffff"
       d="m 499.35814,254.63931 h 7.83759 l 9.99077,35.65672 h 0.43064 l 9.90464,-35.65672 h 7.92372 l 9.73239,35.48446 h 0.51676 l 9.99077,-35.48446 h 7.75146 l -14.21101,46.76714 h -7.32082 L 531.74202,265.74973 H 531.053 l -10.07689,35.65672 h -7.40696 z"
       id="path17" />
    <path
       style="font-size:88.1944px;font-family:Pretendard;-inkscape-font-specification:Pretendard;stroke-width:0.264583;fill:#ffffff"
       d="m 424.98719,254.63931 h 7.14857 v 7.14857 h 0.51676 q 1.29191,-3.57429 4.60781,-5.72747 3.3159,-2.19625 7.45002,-2.19625 2.15318,0 3.87573,0.17226 v 7.49308 q -0.4737,-0.17226 -1.85174,-0.34451 -1.33497,-0.17226 -2.62688,-0.17226 -3.31591,0 -5.98585,1.4211 -2.66995,1.4211 -4.22024,3.9188 -1.50723,2.49769 -1.50723,5.59827 v 29.45555 h -7.40695 z"
       id="path14" />
    <path
       style="font-size:88.1944px;font-family:Pretendard;-inkscape-font-specification:Pretendard;stroke-width:0.264583;fill:#ffffff"
       d="m 407.33108,258.68729 q -0.86127,-4.17717 -3.44509,-7.14857 -2.54076,-3.01445 -6.20117,-4.56475 -3.61735,-1.55029 -7.75146,-1.55029 -5.72747,0 -10.29222,2.88527 -4.52169,2.88526 -7.14857,8.48354 -2.62688,5.59828 -2.62688,13.43587 0,7.83758 2.62688,13.43586 2.62688,5.59828 7.14857,8.48354 4.56475,2.88527 10.29222,2.88527 4.13411,0 7.75146,-1.50723 3.61735,-1.55029 6.1581,-4.52168 2.58382,-3.01446 3.48816,-7.14857 h 7.75146 q -1.11966,6.24423 -4.65088,10.89511 -3.53122,4.60781 -8.87111,7.06244 -5.29683,2.45463 -11.62719,2.45463 -8.00985,0 -14.25408,-3.9188 -6.24423,-3.91879 -9.77545,-11.15349 -3.53122,-7.27776 -3.53122,-16.96708 0,-9.68933 3.53122,-16.92403 3.53122,-7.27776 9.77545,-11.19655 6.24423,-3.91879 14.25408,-3.91879 6.28729,0 11.58412,2.45463 5.3399,2.45462 8.87112,7.1055 3.57428,4.60781 4.69394,10.93817 z"
       id="path13" />
    <path
       style="font-size:88.1944px;font-family:Pretendard;-inkscape-font-specification:Pretendard;fill:#ffffff;stroke-width:0.264583"
       d="m 338.34308,301.40645 h -7.66533 l -17.22547,-46.76714 h 8.09597 l 12.74684,37.12088 h 0.51677 l 12.74684,-37.12088 h 8.09597 z"
       id="path12"
       sodipodi:nodetypes="ccccccccc" />
    <path
       id="path10-5"
       style="mix-blend-mode:difference;fill:#5fabdd;stroke-width:0.276812"
       d="m 166.53322,176.94825 v 124.71281 h 43.92497 c 12.63203,0 23.51294,-2.49769 32.64245,-7.49308 9.12951,-4.9954 16.1347,-12.17284 21.01526,-21.53203 4.88055,-9.4166 7.32048,-20.58426 7.32048,-33.50338 0,-12.80428 -2.43993,-23.88633 -7.32048,-33.24551 -4.82314,-9.35918 -11.77109,-16.50775 -20.84318,-21.44572 -9.07209,-4.99539 -19.838,-7.49309 -32.29777,-7.49309 z m 25.83822,22.22087 h 17.22582 c 12.00042,0 20.98602,3.24447 26.95753,9.73274 6.02892,6.48827 9.04337,16.56515 9.04337,30.23071 0,13.78039 -3.01445,23.9434 -9.04337,30.48909 -6.02892,6.54568 -15.07229,9.81852 -27.13013,9.81852 h -17.05322 z"
       sodipodi:nodetypes="ccsscsccsccscssscc" />
    <path
       id="path33"
       style="mix-blend-mode:overlay;fill:#316096;fill-opacity:1;stroke-width:0.264583"
       d="m 192.37876,204.19663 a 71.970612,71.970612 0 0 0 -25.83821,5.63583 v 91.84194 h 43.92496 c 12.63203,0 23.51295,-2.49769 32.64246,-7.49308 9.1295,-4.9954 16.13469,-12.17284 21.01525,-21.53202 0.70839,-1.36679 1.36537,-2.77054 1.97094,-4.21111 a 71.970612,71.970612 0 0 0 -22.07204,-44.56162 c 1.05558,4.46147 1.58336,9.55122 1.58336,15.26935 0,13.78039 -3.01445,23.9434 -9.04337,30.48909 -6.02892,6.54568 -15.07228,9.81852 -27.13012,9.81852 h -17.05323 z" />
    <path
       id="path10-5-9"
       style="mix-blend-mode:hard-light;fill:#5fabdd;stroke-width:0.276812"
       d="m 246.31661,186.22441 c -7.15688,4.21133 -13.41511,9.78984 -18.418,16.4176 3.36232,1.55834 6.23992,3.63757 8.63358,6.23838 6.02892,6.48827 9.04338,16.56515 9.04338,30.23071 0,13.78039 -2.68973,23.70635 -8.71865,30.25204 -2.78964,3.02874 -5.90804,5.38386 -9.98847,7.01118 4.67588,6.81428 9.99996,12.85681 16.91757,17.37841 8.78465,-4.97605 15.55357,-12.02232 20.30728,-21.13825 4.88055,-9.4166 7.32048,-20.58426 7.32048,-33.50338 0,-12.80428 -2.43993,-23.88633 -7.32048,-33.24552 -4.26464,-8.27543 -10.19008,-14.82233 -17.77669,-19.64117 z"
       sodipodi:nodetypes="cccsscccscc" />
    <path
       id="path33-3"
       style="mix-blend-mode:hard-light;fill:#316096;fill-opacity:1;stroke-width:0.264583"
       d="m 192.37197,204.20448 c -8.88692,0.26652 -17.64752,2.17738 -25.83821,5.63583 v 91.84194 h 43.92496 c 12.63203,0 23.51294,-2.49769 32.64245,-7.49308 9.12951,-4.9954 16.1347,-12.17284 21.01526,-21.53202 0.70839,-1.36679 1.36537,-2.77054 1.97094,-4.21111 -1.82897,-17.00459 -9.65372,-32.80211 -22.07204,-44.56163 1.05558,4.46148 1.58336,9.55123 1.58336,15.26936 0,13.78039 -3.01445,23.9434 -9.04337,30.48909 -6.02892,6.54568 -15.07229,9.81852 -27.13013,9.81852 h -17.05322 z"
       sodipodi:nodetypes="cccsscccssscc" />
  </g>
</svg>
